<svg width="180" height="50" viewBox="0 0 180 50" fill="none" xmlns="http://www.w3.org/2000/svg">
<path d="M17.8758 15.7941L17.5172 17.2814C16.083 16.048 14.2186 15.3225 12.2107 15.3225C7.65718 15.3225 4 18.9863 4 23.5931C4 28.1637 7.65718 31.8637 12.2107 31.8637C14.2186 31.8637 16.083 31.1382 17.5172 29.9049V31.4284H21.3178V15.7941H17.8758ZM15.6169 26.6039C14.864 27.402 13.86 27.8373 12.7844 27.8373C11.7088 27.8373 10.7048 27.402 9.91602 26.6039C9.16308 25.7696 8.73282 24.7176 8.73282 23.5931C8.73282 22.4686 9.16308 21.3804 9.91602 20.5824C10.7048 19.7843 11.7088 19.349 12.7844 19.349C13.86 19.349 14.864 19.7843 15.6169 20.5824C16.4057 21.3804 16.8001 22.4686 16.8001 23.5931C16.8001 24.7176 16.4057 25.7696 15.6169 26.6039Z" fill="white"/>
<path d="M47.9441 6L37.4746 15.649L26.9691 6H25.2481V31.4284H49.701V6H47.9441ZM30.2678 26.35V15.8667L37.4746 22.5049L44.6814 15.8667V26.35H30.2678Z" fill="white"/>
<path d="M67.8897 6H66.4197L54.3008 30.0863V31.4284H79.1481V30.0863L67.8897 6ZM61.7944 26.35L67.0292 15.9755L71.8337 26.35H61.7944Z" fill="white"/>
<path d="M83.3285 31.4284V29.9775L97.2043 10.752H85.5874V6H106.168V7.48725L92.2563 26.7127H105.379V31.4284H83.3285Z" fill="white"/>
<path d="M127.217 6H110.473V31.4284H127.11V26.35H115.493V20.8363H125.173V15.7578H115.493V11.0784H127.217V6Z" fill="white"/>
<path d="M131.146 11.0784V6H135.771V11.0784H131.146ZM131.146 31.4284V15.7941H135.771V31.4284H131.146Z" fill="white"/>
<path d="M142.296 15.7941H138.639V31.4284H143.156V23.6657C143.156 21.4167 144.734 19.4216 146.885 19.4216C149.036 19.4216 150.614 21.4167 150.614 23.6657V31.4284H154.988V23.6657C154.988 19.0588 151.582 15.3588 147.423 15.3588C145.845 15.3588 144.232 16.0843 143.013 17.1725L142.296 15.7941Z" fill="white"/>
<path d="M174.355 17.3902V14.3794L166.969 15.7941C166.61 15.7578 166.251 15.7216 165.893 15.7216C161.734 15.7216 158.328 18.8775 158.328 22.7951C158.328 25.0078 159.439 27.0029 161.124 28.3088C159.941 30.0137 158.292 32.698 157.575 35.1284C157.288 35.7814 157.144 36.4706 157.144 37.1961C157.144 39.0824 157.933 40.5696 159.475 41.5853C160.945 42.5284 163.096 43 166.072 43C169.048 43 171.199 42.5284 172.669 41.5853C174.211 40.5696 175 39.0824 175 37.1961C175 35.3824 174.139 33.8225 172.562 32.8069C171.056 31.8637 168.941 31.3922 166.072 31.3922C165.068 31.3922 164.172 31.4647 163.347 31.5735C163.598 30.9206 163.921 30.2676 164.244 29.6873C164.781 29.7961 165.319 29.8686 165.893 29.8686C170.124 29.8686 173.53 26.7127 173.53 22.7951C173.53 21.0539 172.849 19.4578 171.737 18.2608L174.355 17.3902ZM165.893 19.7843C167.686 19.7843 169.156 21.0902 169.156 22.7951C169.156 24.3549 167.757 25.8059 165.893 25.8059C164.279 25.8059 162.666 24.5726 162.666 22.7951C162.666 21.2353 164.064 19.7843 165.893 19.7843ZM166.072 38.8647C163.204 38.8647 161.554 38.3569 161.554 37.1961C161.554 36.2167 163.24 35.5275 166.072 35.5275C168.761 35.5275 170.59 36.1078 170.59 37.1961C170.59 38.3569 169.156 38.8647 166.072 38.8647Z" fill="white"/>
</svg>
